<svg xmlns="http://www.w3.org/2000/svg" width="292" height="39.038" viewBox="0 0 292 39.038">
  <g id=":_logo-predictiveIT" data-name=": logo-predictiveIT" transform="translate(0)">
    <path id="Path_2174" data-name="Path 2174" d="M596.911,0a12.266,12.266,0,0,0-1.95.143,14.7,14.7,0,0,0-6.917,3.112,14.605,14.605,0,0,0-5.329,7.753c-2.344,8.943-4.644,17.9-6.981,26.852-.123.478.02.509.43.509q20.571-.012,41.143,0a12.28,12.28,0,0,0,1.711-.115A15.8,15.8,0,0,0,631.6,26.971q3.11-12.1,6.26-24.193a14.356,14.356,0,0,1,.716-2.491V0Q617.745,0,596.911,0Zm7.008,6.348q-3.451,12.847-6.873,25.7a.468.468,0,0,1-.545.422q-5.032-.024-10.069,0c-.434,0-.442-.135-.35-.478q3.439-12.823,6.861-25.654a.489.489,0,0,1,.577-.438c1.671.02,3.339.008,5.011.008,1.687,0,3.371.012,5.058-.008C603.991,5.89,604.015,6,603.919,6.348Zm26.47,3.864c-.08.33-.287.279-.5.279-2.117,0-4.234.012-6.348-.012-.41,0-.533.139-.629.5Q620.1,21.493,617.267,32a.444.444,0,0,1-.513.4q-5.247-.018-10.5,0c-.521,0-.378-.247-.306-.513q2.209-8.19,4.414-16.381c.41-1.512.8-3.033,1.226-4.541.111-.394.04-.49-.37-.486-2.081.016-4.167,0-6.252.016-.41,0-.517-.068-.394-.5.35-1.234.661-2.475.971-3.721a.415.415,0,0,1,.478-.382q12.578.012,25.156.008c.1,0,.187.012.334.024C631.125,7.394,630.739,8.8,630.389,10.212Z" transform="translate(-346.579)" fill="#94c95c"/>
    <path id="Path_2175" data-name="Path 2175" d="M30.99,22.507a6.173,6.173,0,0,0-2.511-.478q-10.023-.018-20.042-.02c-.31,0-.41.131-.478.386-.207.8-.43,1.588-.641,2.384Q3.683,38.289.048,51.8c-.107.394-.052.49.378.49q4.394-.03,8.783,0c.422,0,.557-.143.661-.521.872-3.271,1.771-6.539,2.639-9.814.1-.374.251-.466.613-.462,1.815.016,3.63.008,5.763.008,1.492-.036,3.307.072,5.118-.064A6.7,6.7,0,0,0,29.307,38.5a9.383,9.383,0,0,0,1.357-2.917c.673-2.46,1.333-4.923,2-7.382a9.8,9.8,0,0,0,.374-2.2A3.4,3.4,0,0,0,30.99,22.507Zm-7.908,4.875c-.661,2.463-1.333,4.923-2,7.382-.139.521-.275,1.043-.426,1.56a1.605,1.605,0,0,1-1.795,1.361c-.621.012-1.242,0-1.863,0v-.028c-.716,0-1.433.036-2.145-.008-.752-.048-1.027-.414-.86-1.154.223-.991.509-1.962.772-2.941q.842-3.1,1.683-6.189c.322-1.2.768-1.54,1.994-1.54q1.743-.006,3.486,0C23.1,25.831,23.393,26.221,23.082,27.383Z" transform="translate(0 -13.251)" fill="#2591ce"/>
    <path id="Path_2176" data-name="Path 2176" d="M235.76,4.32q-4.435.024-8.875,0a.461.461,0,0,0-.541.422c-.525,2.054-1.086,4.1-1.612,6.157-.1.378-.259.482-.645.482-3.327-.016-6.65-.028-9.973,0a7.034,7.034,0,0,0-5.95,2.655,8.99,8.99,0,0,0-1.56,3.128c-.621,2.261-1.222,4.529-1.839,6.79a10.95,10.95,0,0,0-.561,3.263,3.376,3.376,0,0,0,2.623,3.371,9.14,9.14,0,0,0,2.46.263c3.021.008,6.045,0,9.066,0,3.419,0,6.841-.008,10.26.008.4,0,.573-.1.681-.505q3.4-12.781,6.841-25.558C236.246,4.384,236.146,4.32,235.76,4.32ZM223.168,16.689c-.533,2.006-1.086,4.008-1.632,6.009-.267.975-.529,1.954-.8,2.933a1.618,1.618,0,0,1-1.811,1.4c-.617.012-1.238,0-1.859,0v-.012c-.669,0-1.337.032-2.006,0-.911-.052-1.186-.426-.971-1.317.2-.832.434-1.656.657-2.479q.889-3.253,1.775-6.511c.326-1.194.764-1.536,1.994-1.536q1.743-.006,3.482,0C223.156,15.181,223.467,15.571,223.168,16.689Z" transform="translate(-122.934 -2.601)" fill="#2591ce"/>
    <path id="Path_2177" data-name="Path 2177" d="M159.519,22.309a9.5,9.5,0,0,0-2.551-.279q-7.062.006-14.128,0a20.411,20.411,0,0,0-2.093.088,5.653,5.653,0,0,0-4.835,3.3,13.129,13.129,0,0,0-.844,2.264c-.677,2.491-1.341,4.987-2.018,7.478a11.475,11.475,0,0,0-.557,3.458,2.579,2.579,0,0,0,1.91,2.551,5.655,5.655,0,0,0,1.54.283c2.909.135,5.822.012,8.174.06,3.482,0,6.411-.008,9.337.012a.525.525,0,0,0,.609-.478c.243-.967.493-1.934.784-2.885.131-.422,0-.466-.374-.466q-4.9.018-9.782,0a4.387,4.387,0,0,1-1.325-.143.949.949,0,0,1-.776-1.09,12.5,12.5,0,0,1,.378-1.711c.068-.382.239-.462.6-.462,5.154.012,10.3,0,15.457.016.346,0,.5-.092.581-.43.422-1.64.88-3.271,1.305-4.911a13.972,13.972,0,0,0,.7-3.964A2.609,2.609,0,0,0,159.519,22.309Zm-7.7,4.867c-.243,1.015-.541,2.018-.792,3.033-.072.283-.239.287-.458.283-1.015,0-2.034,0-3.052,0-1,0-2.006-.012-3.009,0-.322,0-.414-.064-.314-.4.283-.959.517-1.93.8-2.885a1.594,1.594,0,0,1,1.831-1.369c1.305,0,2.611-.008,3.916,0C151.743,25.851,152.045,26.209,151.814,27.176Z" transform="translate(-79.761 -13.263)" fill="#2591ce"/>
    <path id="Path_2178" data-name="Path 2178" d="M544.561,25.011a2.6,2.6,0,0,0-2.141-2.71,9.481,9.481,0,0,0-2.507-.271q-7.134,0-14.271,0a18.67,18.67,0,0,0-2,.092,5.643,5.643,0,0,0-4.764,3.255,10.074,10.074,0,0,0-.7,1.767c-.74,2.686-1.464,5.381-2.2,8.067a12.006,12.006,0,0,0-.549,3.176,2.676,2.676,0,0,0,2.249,2.877,9.862,9.862,0,0,0,2.416.243c2.5.012,4.995,0,7.494,0,2.945,0,5.886-.008,8.831.008a.5.5,0,0,0,.581-.442c.231-.939.5-1.867.752-2.8.159-.577.159-.577-.466-.577q-4.794,0-9.6,0a7.7,7.7,0,0,1-1.047-.068,1.106,1.106,0,0,1-1.087-1.484c.08-.418.255-.82.314-1.242.068-.517.322-.621.816-.617,5.094.02,10.184.008,15.278.02.37,0,.505-.1.6-.47.438-1.735.919-3.458,1.381-5.186A12.318,12.318,0,0,0,544.561,25.011Zm-9.8,2.193c-.239,1.015-.545,2.014-.8,3.029-.068.263-.219.259-.418.259-1.031,0-2.065,0-3.1,0s-2.034-.008-3.053,0c-.275,0-.358-.044-.271-.346.291-.987.525-1.986.816-2.973a1.6,1.6,0,0,1,1.815-1.333c1.3-.008,2.607-.008,3.908,0C534.7,25.847,535,26.2,534.759,27.2Z" transform="translate(-310.3 -13.263)" fill="#2591ce"/>
    <path id="Path_2179" data-name="Path 2179" d="M481.032,22.019l-3.673,5.4q-4.647,6.829-9.286,13.662a.853.853,0,0,1-.811.427q-4.725-.023-9.45,0c-.379,0-.554-.074-.622-.484-.665-4.048-1.351-8.093-2.031-12.139-.363-2.155-.718-4.312-1.1-6.465-.057-.322,0-.408.33-.407q5.012.016,10.023,0c.361,0,.412.169.453.439q.632,4.135,1.271,8.268.4,2.584.791,5.168a2.082,2.082,0,0,0,.083.277,1.041,1.041,0,0,0,.336-.41q4.51-6.663,9.006-13.334a.8.8,0,0,1,.772-.406C478.394,22.033,479.664,22.019,481.032,22.019Z" transform="translate(-273.343 -13.25)" fill="#2591ce"/>
    <path id="Path_2180" data-name="Path 2180" d="M380.118,15.652H383.3c.859,0,1.718.012,2.577-.006.322-.007.367.077.279.379q-.438,1.5-.818,3.027a.461.461,0,0,1-.546.418c-1.75-.02-3.5,0-5.25-.018-.37,0-.505.109-.6.469-.848,3.249-1.722,6.491-2.583,9.735-.361,1.361-.24,1.577,1.177,1.636,1.525.063,3.054.036,4.581.021.395,0,.482.084.366.469-.3.986-.567,1.98-.819,2.977a.417.417,0,0,1-.486.378c-3.436-.009-6.873,0-10.31-.012a8.076,8.076,0,0,1-2.03-.25,3.177,3.177,0,0,1-2.486-3,10.249,10.249,0,0,1,.509-3.462q2.224-8.258,4.44-16.518c.1-.371.247-.46.609-.458q4.415.021,8.83,0c.455,0,.467.124.359.505C380.756,13.154,380.451,14.382,380.118,15.652Z" transform="translate(-220.543 -6.883)" fill="#2591ce"/>
    <path id="Path_2181" data-name="Path 2181" d="M320.759,41.5c-1.911-.045-4.266.077-6.618-.062a5.711,5.711,0,0,1-.988-.143,3.559,3.559,0,0,1-2.859-4.347,49.005,49.005,0,0,1,1.224-4.929c.347-1.381.741-2.752,1.118-4.125a9.248,9.248,0,0,1,1.65-3.292,6.844,6.844,0,0,1,5.654-2.564c4.485-.042,8.97-.012,13.456-.021.3,0,.4.06.311.374-.294,1.035-.582,2.073-.843,3.117-.079.318-.263.327-.519.326-1.972-.006-3.944,0-5.917,0-.191,0-.382,0-.573,0a2.419,2.419,0,0,0-2.6,1.993c-.736,2.72-1.447,5.448-2.153,8.176-.257.991.134,1.525,1.153,1.629.347.035.7.055,1.047.056,2,.005,4.008,0,6.012.005.194,0,.491-.1.372.314-.3,1.066-.6,2.134-.874,3.207-.08.314-.278.287-.5.287Z" transform="translate(-186.768 -13.255)" fill="#2591ce"/>
    <path id="Path_2182" data-name="Path 2182" d="M99.395,25.83c-.7,0-1.4,0-2.1,0-1.375,0-1.836.346-2.2,1.684Q93.941,31.753,92.808,36c-.456,1.7-.916,3.393-1.359,5.093a.474.474,0,0,1-.554.42q-4.842-.021-9.684,0c-.366,0-.415-.094-.326-.423,1.09-4.034,2.167-8.072,3.255-12.107a12.553,12.553,0,0,1,1.09-2.729,7.506,7.506,0,0,1,6.906-4.213c3.593-.043,7.188-.008,10.782-.023.348,0,.357.123.284.386-.288,1.037-.573,2.075-.848,3.116a.369.369,0,0,1-.43.322C101.08,25.82,100.238,25.83,99.395,25.83Z" transform="translate(-48.671 -13.252)" fill="#2591ce"/>
    <path id="Path_2183" data-name="Path 2183" d="M279.971,41.495c-1.511,0-3.022-.006-4.533.005-.315,0-.409-.045-.314-.4q2.529-9.354,5.026-18.717c.073-.275.177-.38.477-.379,3.006.012,6.013.02,9.019-.005.5,0,.356.226.287.481q-1.584,5.9-3.17,11.789c-.6,2.248-1.217,4.493-1.8,6.746a.542.542,0,0,1-.647.486C282.867,41.48,281.419,41.495,279.971,41.495Z" transform="translate(-165.609 -13.246)" fill="#2591ce"/>
    <path id="Path_2184" data-name="Path 2184" d="M422.016,22.024c1.5,0,2.991.008,4.486-.006.326,0,.411.067.32.4q-2.525,9.357-5.028,18.72a.421.421,0,0,1-.488.371q-4.487-.017-8.973,0c-.349,0-.434-.076-.34-.426q2.525-9.333,5.023-18.672a.437.437,0,0,1,.513-.395C419.025,22.032,420.52,22.024,422.016,22.024Z" transform="translate(-248.007 -13.255)" fill="#2591ce"/>
    <path id="Path_2185" data-name="Path 2185" d="M426.448,9.423q.484-1.827.969-3.657c.1-.367.216-.73.291-1.1.055-.276.193-.338.459-.337q4.437.014,8.873,0c.283,0,.4.022.3.364-.414,1.478-.8,2.965-1.187,4.45-.052.2-.108.333-.367.332-3.069-.011-6.138-.009-9.207-.012A.643.643,0,0,1,426.448,9.423Z" transform="translate(-256.731 -2.605)" fill="#2591ce"/>
    <path id="Path_2186" data-name="Path 2186" d="M294.446,9.468c-1.446,0-2.893-.008-4.339.006-.338,0-.482-.016-.362-.432.415-1.444.793-2.9,1.163-4.357.075-.295.214-.36.494-.359q4.41.013,8.822,0c.317,0,.415.06.324.388-.4,1.464-.8,2.93-1.177,4.4-.076.3-.211.361-.49.359C297.4,9.462,295.925,9.468,294.446,9.468Z" transform="translate(-174.408 -2.604)" fill="#2591ce"/>
  </g>
</svg>
